<svg xmlns="http://www.w3.org/2000/svg" viewBox="0 0 1200 800"><rect width="1200" height="800" fill="#f5f1e9"/><g stroke="#1e2722" stroke-width="3" fill="none"><path d="M170 400h180M510 400h180M850 400h180"/><path d="M320 385l30 15-30 15M660 385l30 15-30 15M1000 385l30 15-30 15"/></g><g font-family="monospace"><g><rect x="80" y="220" width="250" height="360" rx="16" fill="#fffdf8" stroke="#1e2722" stroke-width="3"/><text x="110" y="270" font-size="16" fill="#647066">01 / DISCOVER</text><circle cx="160" cy="360" r="40" fill="#e85d4a"/><path d="M142 345c35-32 70 10 18 50-52-40-17-82 18-50" fill="#fffdf8"/><text x="110" y="480" font-size="20" fill="#1e2722">items</text><text x="110" y="515" font-size="15" fill="#647066">catalog + availability</text></g><g><rect x="420" y="220" width="250" height="360" rx="16" fill="#fffdf8" stroke="#1e2722" stroke-width="3"/><text x="450" y="270" font-size="16" fill="#647066">02 / CART</text><path d="M470 350h130l-18 88H495z" fill="#e85d4a"/><circle cx="510" cy="475" r="12" fill="#1e2722"/><circle cx="590" cy="475" r="12" fill="#1e2722"/><text x="450" y="525" font-size="20" fill="#1e2722">review</text></g><g><rect x="760" y="220" width="250" height="360" rx="16" fill="#fffdf8" stroke="#1e2722" stroke-width="3"/><text x="790" y="270" font-size="16" fill="#647066">03 / HANDOFF</text><rect x="810" y="340" width="150" height="85" rx="10" fill="#d7e7c6" stroke="#356b46" stroke-width="3"/><text x="834" y="390" font-size="18" fill="#356b46">pause</text><text x="790" y="480" font-size="20" fill="#1e2722">human confirms</text></g></g><text x="80" y="690" fill="#1e2722" font-family="monospace" font-size="18">AUTOMATION WITH A VISIBLE STOP</text></svg>
